<mxfile host="app.diagrams.net" agent="Mozilla/5.0 (X11; Linux x86_64; rv:132.0) Gecko/20100101 Firefox/132.0" version="24.8.6">
  <diagram name="Page-1" id="0zV45-0WjPsHE1_rmKMo">
    <mxGraphModel dx="1434" dy="778" grid="1" gridSize="10" guides="1" tooltips="1" connect="1" arrows="1" fold="1" page="1" pageScale="1" pageWidth="2000" pageHeight="2000" math="0" shadow="0">
      <root>
        <mxCell id="0" />
        <mxCell id="1" parent="0" />
        <mxCell id="2SvRunpLNIh245kXhkNx-15" style="edgeStyle=orthogonalEdgeStyle;rounded=0;orthogonalLoop=1;jettySize=auto;html=1;exitX=0.5;exitY=1;exitDx=0;exitDy=0;entryX=0.5;entryY=0;entryDx=0;entryDy=0;" edge="1" parent="1" source="2SvRunpLNIh245kXhkNx-1" target="2SvRunpLNIh245kXhkNx-2">
          <mxGeometry relative="1" as="geometry" />
        </mxCell>
        <mxCell id="2SvRunpLNIh245kXhkNx-1" value="Start" style="ellipse;whiteSpace=wrap;html=1;" vertex="1" parent="1">
          <mxGeometry width="120" height="80" as="geometry" />
        </mxCell>
        <mxCell id="2SvRunpLNIh245kXhkNx-17" style="edgeStyle=orthogonalEdgeStyle;rounded=0;orthogonalLoop=1;jettySize=auto;html=1;exitX=0.5;exitY=1;exitDx=0;exitDy=0;entryX=0.5;entryY=0;entryDx=0;entryDy=0;" edge="1" parent="1" source="2SvRunpLNIh245kXhkNx-2" target="2SvRunpLNIh245kXhkNx-3">
          <mxGeometry relative="1" as="geometry" />
        </mxCell>
        <mxCell id="2SvRunpLNIh245kXhkNx-2" value="&lt;div&gt;a = {0,1,1,3,4,5,6,7,8,9,10}&lt;/div&gt;&lt;div&gt;size = 11&lt;br&gt;&lt;/div&gt;" style="rounded=0;whiteSpace=wrap;html=1;" vertex="1" parent="1">
          <mxGeometry y="120" width="120" height="60" as="geometry" />
        </mxCell>
        <mxCell id="2SvRunpLNIh245kXhkNx-18" style="edgeStyle=orthogonalEdgeStyle;rounded=0;orthogonalLoop=1;jettySize=auto;html=1;exitX=0.5;exitY=1;exitDx=0;exitDy=0;entryX=0.5;entryY=0;entryDx=0;entryDy=0;" edge="1" parent="1" source="2SvRunpLNIh245kXhkNx-3" target="2SvRunpLNIh245kXhkNx-4">
          <mxGeometry relative="1" as="geometry" />
        </mxCell>
        <mxCell id="2SvRunpLNIh245kXhkNx-3" value="print a, size" style="shape=parallelogram;perimeter=parallelogramPerimeter;whiteSpace=wrap;html=1;fixedSize=1;" vertex="1" parent="1">
          <mxGeometry y="220" width="120" height="60" as="geometry" />
        </mxCell>
        <mxCell id="2SvRunpLNIh245kXhkNx-19" style="edgeStyle=orthogonalEdgeStyle;rounded=0;orthogonalLoop=1;jettySize=auto;html=1;exitX=0.5;exitY=1;exitDx=0;exitDy=0;entryX=0.5;entryY=0;entryDx=0;entryDy=0;" edge="1" parent="1" source="2SvRunpLNIh245kXhkNx-4" target="2SvRunpLNIh245kXhkNx-5">
          <mxGeometry relative="1" as="geometry" />
        </mxCell>
        <mxCell id="2SvRunpLNIh245kXhkNx-4" value="delete_even(a, size)" style="shape=process;whiteSpace=wrap;html=1;backgroundOutline=1;" vertex="1" parent="1">
          <mxGeometry y="320" width="120" height="60" as="geometry" />
        </mxCell>
        <mxCell id="2SvRunpLNIh245kXhkNx-20" style="edgeStyle=orthogonalEdgeStyle;rounded=0;orthogonalLoop=1;jettySize=auto;html=1;exitX=0.5;exitY=1;exitDx=0;exitDy=0;entryX=0.5;entryY=0;entryDx=0;entryDy=0;" edge="1" parent="1" source="2SvRunpLNIh245kXhkNx-5" target="2SvRunpLNIh245kXhkNx-6">
          <mxGeometry relative="1" as="geometry" />
        </mxCell>
        <mxCell id="2SvRunpLNIh245kXhkNx-5" value="print a, size" style="shape=parallelogram;perimeter=parallelogramPerimeter;whiteSpace=wrap;html=1;fixedSize=1;" vertex="1" parent="1">
          <mxGeometry y="420" width="120" height="60" as="geometry" />
        </mxCell>
        <mxCell id="2SvRunpLNIh245kXhkNx-21" style="edgeStyle=orthogonalEdgeStyle;rounded=0;orthogonalLoop=1;jettySize=auto;html=1;exitX=0.5;exitY=1;exitDx=0;exitDy=0;entryX=0.5;entryY=0;entryDx=0;entryDy=0;" edge="1" parent="1" source="2SvRunpLNIh245kXhkNx-6" target="2SvRunpLNIh245kXhkNx-7">
          <mxGeometry relative="1" as="geometry" />
        </mxCell>
        <mxCell id="2SvRunpLNIh245kXhkNx-6" value="delete_even(a, size)" style="shape=process;whiteSpace=wrap;html=1;backgroundOutline=1;" vertex="1" parent="1">
          <mxGeometry y="520" width="120" height="60" as="geometry" />
        </mxCell>
        <mxCell id="2SvRunpLNIh245kXhkNx-22" style="edgeStyle=orthogonalEdgeStyle;rounded=0;orthogonalLoop=1;jettySize=auto;html=1;exitX=1;exitY=0.5;exitDx=0;exitDy=0;entryX=0;entryY=0.5;entryDx=0;entryDy=0;" edge="1" parent="1" source="2SvRunpLNIh245kXhkNx-7" target="2SvRunpLNIh245kXhkNx-8">
          <mxGeometry relative="1" as="geometry" />
        </mxCell>
        <mxCell id="2SvRunpLNIh245kXhkNx-7" value="print a, size" style="shape=parallelogram;perimeter=parallelogramPerimeter;whiteSpace=wrap;html=1;fixedSize=1;" vertex="1" parent="1">
          <mxGeometry y="620" width="120" height="60" as="geometry" />
        </mxCell>
        <mxCell id="2SvRunpLNIh245kXhkNx-23" style="edgeStyle=orthogonalEdgeStyle;rounded=0;orthogonalLoop=1;jettySize=auto;html=1;exitX=0.5;exitY=1;exitDx=0;exitDy=0;entryX=0.5;entryY=0;entryDx=0;entryDy=0;" edge="1" parent="1" source="2SvRunpLNIh245kXhkNx-8" target="2SvRunpLNIh245kXhkNx-9">
          <mxGeometry relative="1" as="geometry" />
        </mxCell>
        <mxCell id="2SvRunpLNIh245kXhkNx-8" value="str = &quot;Zero One Two Three Four Odd Even Lorem ipsum dolor sit amet even&quot;" style="rounded=0;whiteSpace=wrap;html=1;" vertex="1" parent="1">
          <mxGeometry x="240" y="120" width="120" height="60" as="geometry" />
        </mxCell>
        <mxCell id="2SvRunpLNIh245kXhkNx-24" style="edgeStyle=orthogonalEdgeStyle;rounded=0;orthogonalLoop=1;jettySize=auto;html=1;exitX=0.5;exitY=1;exitDx=0;exitDy=0;entryX=0.5;entryY=0;entryDx=0;entryDy=0;" edge="1" parent="1" source="2SvRunpLNIh245kXhkNx-9" target="2SvRunpLNIh245kXhkNx-10">
          <mxGeometry relative="1" as="geometry" />
        </mxCell>
        <mxCell id="2SvRunpLNIh245kXhkNx-9" value="print str" style="shape=parallelogram;perimeter=parallelogramPerimeter;whiteSpace=wrap;html=1;fixedSize=1;" vertex="1" parent="1">
          <mxGeometry x="240" y="220" width="120" height="60" as="geometry" />
        </mxCell>
        <mxCell id="2SvRunpLNIh245kXhkNx-25" style="edgeStyle=orthogonalEdgeStyle;rounded=0;orthogonalLoop=1;jettySize=auto;html=1;exitX=0.5;exitY=1;exitDx=0;exitDy=0;entryX=0.5;entryY=0;entryDx=0;entryDy=0;" edge="1" parent="1" source="2SvRunpLNIh245kXhkNx-10" target="2SvRunpLNIh245kXhkNx-13">
          <mxGeometry relative="1" as="geometry" />
        </mxCell>
        <mxCell id="2SvRunpLNIh245kXhkNx-10" value="delete_even(str)" style="shape=process;whiteSpace=wrap;html=1;backgroundOutline=1;" vertex="1" parent="1">
          <mxGeometry x="240" y="320" width="120" height="60" as="geometry" />
        </mxCell>
        <mxCell id="2SvRunpLNIh245kXhkNx-28" style="edgeStyle=orthogonalEdgeStyle;rounded=0;orthogonalLoop=1;jettySize=auto;html=1;exitX=0.5;exitY=1;exitDx=0;exitDy=0;entryX=0.5;entryY=0;entryDx=0;entryDy=0;" edge="1" parent="1" source="2SvRunpLNIh245kXhkNx-11" target="2SvRunpLNIh245kXhkNx-16">
          <mxGeometry relative="1" as="geometry" />
        </mxCell>
        <mxCell id="2SvRunpLNIh245kXhkNx-11" value="print str" style="shape=parallelogram;perimeter=parallelogramPerimeter;whiteSpace=wrap;html=1;fixedSize=1;" vertex="1" parent="1">
          <mxGeometry x="240" y="620" width="120" height="60" as="geometry" />
        </mxCell>
        <mxCell id="2SvRunpLNIh245kXhkNx-26" style="edgeStyle=orthogonalEdgeStyle;rounded=0;orthogonalLoop=1;jettySize=auto;html=1;exitX=0.5;exitY=1;exitDx=0;exitDy=0;entryX=0.5;entryY=0;entryDx=0;entryDy=0;" edge="1" parent="1" source="2SvRunpLNIh245kXhkNx-13" target="2SvRunpLNIh245kXhkNx-14">
          <mxGeometry relative="1" as="geometry" />
        </mxCell>
        <mxCell id="2SvRunpLNIh245kXhkNx-13" value="print str" style="shape=parallelogram;perimeter=parallelogramPerimeter;whiteSpace=wrap;html=1;fixedSize=1;" vertex="1" parent="1">
          <mxGeometry x="240" y="420" width="120" height="60" as="geometry" />
        </mxCell>
        <mxCell id="2SvRunpLNIh245kXhkNx-27" style="edgeStyle=orthogonalEdgeStyle;rounded=0;orthogonalLoop=1;jettySize=auto;html=1;exitX=0.5;exitY=1;exitDx=0;exitDy=0;entryX=0.5;entryY=0;entryDx=0;entryDy=0;" edge="1" parent="1" source="2SvRunpLNIh245kXhkNx-14" target="2SvRunpLNIh245kXhkNx-11">
          <mxGeometry relative="1" as="geometry" />
        </mxCell>
        <mxCell id="2SvRunpLNIh245kXhkNx-14" value="delete_even(str)" style="shape=process;whiteSpace=wrap;html=1;backgroundOutline=1;" vertex="1" parent="1">
          <mxGeometry x="240" y="520" width="120" height="60" as="geometry" />
        </mxCell>
        <mxCell id="2SvRunpLNIh245kXhkNx-16" value="End" style="ellipse;whiteSpace=wrap;html=1;" vertex="1" parent="1">
          <mxGeometry x="240" y="720" width="120" height="80" as="geometry" />
        </mxCell>
        <mxCell id="2SvRunpLNIh245kXhkNx-45" style="edgeStyle=orthogonalEdgeStyle;rounded=0;orthogonalLoop=1;jettySize=auto;html=1;exitX=0.5;exitY=1;exitDx=0;exitDy=0;entryX=0.5;entryY=0;entryDx=0;entryDy=0;" edge="1" parent="1" source="2SvRunpLNIh245kXhkNx-29" target="2SvRunpLNIh245kXhkNx-30">
          <mxGeometry relative="1" as="geometry" />
        </mxCell>
        <mxCell id="2SvRunpLNIh245kXhkNx-29" value="delete_even(&amp;amp;arr, &amp;amp;size)" style="ellipse;whiteSpace=wrap;html=1;" vertex="1" parent="1">
          <mxGeometry x="480" width="120" height="80" as="geometry" />
        </mxCell>
        <mxCell id="2SvRunpLNIh245kXhkNx-46" style="edgeStyle=orthogonalEdgeStyle;rounded=0;orthogonalLoop=1;jettySize=auto;html=1;exitX=0.5;exitY=1;exitDx=0;exitDy=0;entryX=0.5;entryY=0;entryDx=0;entryDy=0;" edge="1" parent="1" source="2SvRunpLNIh245kXhkNx-30" target="2SvRunpLNIh245kXhkNx-31">
          <mxGeometry relative="1" as="geometry" />
        </mxCell>
        <mxCell id="2SvRunpLNIh245kXhkNx-30" value="array new_arr with size = size" style="rounded=0;whiteSpace=wrap;html=1;" vertex="1" parent="1">
          <mxGeometry x="480" y="120" width="120" height="60" as="geometry" />
        </mxCell>
        <mxCell id="2SvRunpLNIh245kXhkNx-47" style="edgeStyle=orthogonalEdgeStyle;rounded=0;orthogonalLoop=1;jettySize=auto;html=1;exitX=0.5;exitY=1;exitDx=0;exitDy=0;entryX=0.5;entryY=0;entryDx=0;entryDy=0;" edge="1" parent="1" source="2SvRunpLNIh245kXhkNx-31" target="2SvRunpLNIh245kXhkNx-32">
          <mxGeometry relative="1" as="geometry" />
        </mxCell>
        <mxCell id="2SvRunpLNIh245kXhkNx-31" value="offset = 0" style="rounded=0;whiteSpace=wrap;html=1;" vertex="1" parent="1">
          <mxGeometry x="480" y="220" width="120" height="60" as="geometry" />
        </mxCell>
        <mxCell id="2SvRunpLNIh245kXhkNx-48" style="edgeStyle=orthogonalEdgeStyle;rounded=0;orthogonalLoop=1;jettySize=auto;html=1;exitX=0.5;exitY=1;exitDx=0;exitDy=0;entryX=0.5;entryY=0;entryDx=0;entryDy=0;" edge="1" parent="1" source="2SvRunpLNIh245kXhkNx-32" target="2SvRunpLNIh245kXhkNx-33">
          <mxGeometry relative="1" as="geometry" />
        </mxCell>
        <mxCell id="2SvRunpLNIh245kXhkNx-32" value="i = 0" style="rounded=0;whiteSpace=wrap;html=1;" vertex="1" parent="1">
          <mxGeometry x="480" y="320" width="120" height="60" as="geometry" />
        </mxCell>
        <mxCell id="2SvRunpLNIh245kXhkNx-42" value="yes" style="edgeStyle=orthogonalEdgeStyle;rounded=0;orthogonalLoop=1;jettySize=auto;html=1;exitX=0.5;exitY=1;exitDx=0;exitDy=0;entryX=0.5;entryY=0;entryDx=0;entryDy=0;" edge="1" parent="1" source="2SvRunpLNIh245kXhkNx-33" target="2SvRunpLNIh245kXhkNx-35">
          <mxGeometry relative="1" as="geometry" />
        </mxCell>
        <mxCell id="2SvRunpLNIh245kXhkNx-54" style="edgeStyle=orthogonalEdgeStyle;rounded=0;orthogonalLoop=1;jettySize=auto;html=1;exitX=1;exitY=0.5;exitDx=0;exitDy=0;entryX=0.5;entryY=0;entryDx=0;entryDy=0;" edge="1" parent="1" source="2SvRunpLNIh245kXhkNx-33" target="2SvRunpLNIh245kXhkNx-49">
          <mxGeometry relative="1" as="geometry">
            <Array as="points">
              <mxPoint x="640" y="440" />
              <mxPoint x="640" y="900" />
              <mxPoint x="540" y="900" />
            </Array>
          </mxGeometry>
        </mxCell>
        <mxCell id="2SvRunpLNIh245kXhkNx-55" value="no" style="edgeLabel;html=1;align=center;verticalAlign=middle;resizable=0;points=[];" vertex="1" connectable="0" parent="2SvRunpLNIh245kXhkNx-54">
          <mxGeometry x="-0.9281" y="-3" relative="1" as="geometry">
            <mxPoint as="offset" />
          </mxGeometry>
        </mxCell>
        <mxCell id="2SvRunpLNIh245kXhkNx-33" value="i &amp;lt; size?" style="rhombus;whiteSpace=wrap;html=1;" vertex="1" parent="1">
          <mxGeometry x="500" y="400" width="80" height="80" as="geometry" />
        </mxCell>
        <mxCell id="2SvRunpLNIh245kXhkNx-41" value="yes" style="edgeStyle=orthogonalEdgeStyle;rounded=0;orthogonalLoop=1;jettySize=auto;html=1;exitX=0.5;exitY=1;exitDx=0;exitDy=0;entryX=0.5;entryY=0;entryDx=0;entryDy=0;" edge="1" parent="1" source="2SvRunpLNIh245kXhkNx-35" target="2SvRunpLNIh245kXhkNx-36">
          <mxGeometry relative="1" as="geometry" />
        </mxCell>
        <mxCell id="2SvRunpLNIh245kXhkNx-43" style="edgeStyle=orthogonalEdgeStyle;rounded=0;orthogonalLoop=1;jettySize=auto;html=1;exitX=1;exitY=0.5;exitDx=0;exitDy=0;entryX=0.5;entryY=0;entryDx=0;entryDy=0;" edge="1" parent="1" source="2SvRunpLNIh245kXhkNx-35" target="2SvRunpLNIh245kXhkNx-38">
          <mxGeometry relative="1" as="geometry">
            <Array as="points">
              <mxPoint x="620" y="540" />
              <mxPoint x="620" y="700" />
              <mxPoint x="540" y="700" />
            </Array>
          </mxGeometry>
        </mxCell>
        <mxCell id="2SvRunpLNIh245kXhkNx-44" value="no" style="edgeLabel;html=1;align=center;verticalAlign=middle;resizable=0;points=[];" vertex="1" connectable="0" parent="2SvRunpLNIh245kXhkNx-43">
          <mxGeometry x="-0.86" y="-2" relative="1" as="geometry">
            <mxPoint as="offset" />
          </mxGeometry>
        </mxCell>
        <mxCell id="2SvRunpLNIh245kXhkNx-35" value="arr[i] even?" style="rhombus;whiteSpace=wrap;html=1;" vertex="1" parent="1">
          <mxGeometry x="500" y="500" width="80" height="80" as="geometry" />
        </mxCell>
        <mxCell id="2SvRunpLNIh245kXhkNx-37" style="edgeStyle=orthogonalEdgeStyle;rounded=0;orthogonalLoop=1;jettySize=auto;html=1;exitX=0;exitY=0.5;exitDx=0;exitDy=0;entryX=0;entryY=0.5;entryDx=0;entryDy=0;" edge="1" parent="1" source="2SvRunpLNIh245kXhkNx-36" target="2SvRunpLNIh245kXhkNx-33">
          <mxGeometry relative="1" as="geometry" />
        </mxCell>
        <mxCell id="2SvRunpLNIh245kXhkNx-36" value="offset++, i++" style="rounded=0;whiteSpace=wrap;html=1;" vertex="1" parent="1">
          <mxGeometry x="480" y="620" width="120" height="60" as="geometry" />
        </mxCell>
        <mxCell id="2SvRunpLNIh245kXhkNx-38" value="new_arr[i-offset] = arr[i]" style="rounded=0;whiteSpace=wrap;html=1;" vertex="1" parent="1">
          <mxGeometry x="480" y="720" width="120" height="60" as="geometry" />
        </mxCell>
        <mxCell id="2SvRunpLNIh245kXhkNx-40" style="edgeStyle=orthogonalEdgeStyle;rounded=0;orthogonalLoop=1;jettySize=auto;html=1;exitX=0;exitY=0.5;exitDx=0;exitDy=0;entryX=0;entryY=0.5;entryDx=0;entryDy=0;" edge="1" parent="1" source="2SvRunpLNIh245kXhkNx-39" target="2SvRunpLNIh245kXhkNx-33">
          <mxGeometry relative="1" as="geometry" />
        </mxCell>
        <mxCell id="2SvRunpLNIh245kXhkNx-39" value="i++" style="rounded=0;whiteSpace=wrap;html=1;" vertex="1" parent="1">
          <mxGeometry x="480" y="820" width="120" height="60" as="geometry" />
        </mxCell>
        <mxCell id="2SvRunpLNIh245kXhkNx-56" style="edgeStyle=orthogonalEdgeStyle;rounded=0;orthogonalLoop=1;jettySize=auto;html=1;exitX=0.5;exitY=1;exitDx=0;exitDy=0;entryX=0.5;entryY=0;entryDx=0;entryDy=0;" edge="1" parent="1" source="2SvRunpLNIh245kXhkNx-49" target="2SvRunpLNIh245kXhkNx-50">
          <mxGeometry relative="1" as="geometry" />
        </mxCell>
        <mxCell id="2SvRunpLNIh245kXhkNx-49" value="delete[] arr" style="rounded=0;whiteSpace=wrap;html=1;" vertex="1" parent="1">
          <mxGeometry x="480" y="920" width="120" height="60" as="geometry" />
        </mxCell>
        <mxCell id="2SvRunpLNIh245kXhkNx-57" style="edgeStyle=orthogonalEdgeStyle;rounded=0;orthogonalLoop=1;jettySize=auto;html=1;exitX=0.5;exitY=1;exitDx=0;exitDy=0;entryX=0.5;entryY=0;entryDx=0;entryDy=0;" edge="1" parent="1" source="2SvRunpLNIh245kXhkNx-50" target="2SvRunpLNIh245kXhkNx-51">
          <mxGeometry relative="1" as="geometry" />
        </mxCell>
        <mxCell id="2SvRunpLNIh245kXhkNx-50" value="arr = new_arr" style="rounded=0;whiteSpace=wrap;html=1;" vertex="1" parent="1">
          <mxGeometry x="480" y="1020" width="120" height="60" as="geometry" />
        </mxCell>
        <mxCell id="2SvRunpLNIh245kXhkNx-58" style="edgeStyle=orthogonalEdgeStyle;rounded=0;orthogonalLoop=1;jettySize=auto;html=1;exitX=0.5;exitY=1;exitDx=0;exitDy=0;entryX=0.5;entryY=0;entryDx=0;entryDy=0;" edge="1" parent="1" source="2SvRunpLNIh245kXhkNx-51" target="2SvRunpLNIh245kXhkNx-53">
          <mxGeometry relative="1" as="geometry" />
        </mxCell>
        <mxCell id="2SvRunpLNIh245kXhkNx-51" value="size -= offset" style="rounded=0;whiteSpace=wrap;html=1;" vertex="1" parent="1">
          <mxGeometry x="480" y="1120" width="120" height="60" as="geometry" />
        </mxCell>
        <mxCell id="2SvRunpLNIh245kXhkNx-53" value="return" style="ellipse;whiteSpace=wrap;html=1;" vertex="1" parent="1">
          <mxGeometry x="480" y="1220" width="120" height="80" as="geometry" />
        </mxCell>
        <mxCell id="2SvRunpLNIh245kXhkNx-67" style="edgeStyle=orthogonalEdgeStyle;rounded=0;orthogonalLoop=1;jettySize=auto;html=1;exitX=0.5;exitY=1;exitDx=0;exitDy=0;entryX=0.5;entryY=0;entryDx=0;entryDy=0;" edge="1" parent="1" source="2SvRunpLNIh245kXhkNx-59" target="2SvRunpLNIh245kXhkNx-60">
          <mxGeometry relative="1" as="geometry" />
        </mxCell>
        <mxCell id="2SvRunpLNIh245kXhkNx-59" value="delete_even(&amp;amp;str)" style="ellipse;whiteSpace=wrap;html=1;" vertex="1" parent="1">
          <mxGeometry x="720" width="120" height="80" as="geometry" />
        </mxCell>
        <mxCell id="2SvRunpLNIh245kXhkNx-68" style="edgeStyle=orthogonalEdgeStyle;rounded=0;orthogonalLoop=1;jettySize=auto;html=1;exitX=0.5;exitY=1;exitDx=0;exitDy=0;entryX=0.5;entryY=0;entryDx=0;entryDy=0;" edge="1" parent="1" source="2SvRunpLNIh245kXhkNx-60" target="2SvRunpLNIh245kXhkNx-61">
          <mxGeometry relative="1" as="geometry" />
        </mxCell>
        <mxCell id="2SvRunpLNIh245kXhkNx-60" value="sstream s (str), s_new" style="rounded=0;whiteSpace=wrap;html=1;" vertex="1" parent="1">
          <mxGeometry x="720" y="120" width="120" height="60" as="geometry" />
        </mxCell>
        <mxCell id="2SvRunpLNIh245kXhkNx-69" style="edgeStyle=orthogonalEdgeStyle;rounded=0;orthogonalLoop=1;jettySize=auto;html=1;exitX=0.5;exitY=1;exitDx=0;exitDy=0;entryX=0.5;entryY=0;entryDx=0;entryDy=0;" edge="1" parent="1" source="2SvRunpLNIh245kXhkNx-61" target="2SvRunpLNIh245kXhkNx-62">
          <mxGeometry relative="1" as="geometry" />
        </mxCell>
        <mxCell id="2SvRunpLNIh245kXhkNx-61" value="string word_even, word_odd" style="rounded=0;whiteSpace=wrap;html=1;" vertex="1" parent="1">
          <mxGeometry x="720" y="220" width="120" height="60" as="geometry" />
        </mxCell>
        <mxCell id="2SvRunpLNIh245kXhkNx-70" style="edgeStyle=orthogonalEdgeStyle;rounded=0;orthogonalLoop=1;jettySize=auto;html=1;exitX=0.5;exitY=1;exitDx=0;exitDy=0;entryX=0.5;entryY=0;entryDx=0;entryDy=0;" edge="1" parent="1" source="2SvRunpLNIh245kXhkNx-62" target="2SvRunpLNIh245kXhkNx-64">
          <mxGeometry relative="1" as="geometry" />
        </mxCell>
        <mxCell id="2SvRunpLNIh245kXhkNx-62" value="s &amp;gt;&amp;gt; word_even &amp;gt;&amp;gt; word_odd" style="rounded=0;whiteSpace=wrap;html=1;" vertex="1" parent="1">
          <mxGeometry x="720" y="320" width="120" height="60" as="geometry" />
        </mxCell>
        <mxCell id="2SvRunpLNIh245kXhkNx-71" style="edgeStyle=orthogonalEdgeStyle;rounded=0;orthogonalLoop=1;jettySize=auto;html=1;exitX=0.5;exitY=1;exitDx=0;exitDy=0;entryX=0.5;entryY=0;entryDx=0;entryDy=0;" edge="1" parent="1" source="2SvRunpLNIh245kXhkNx-64" target="2SvRunpLNIh245kXhkNx-65">
          <mxGeometry relative="1" as="geometry" />
        </mxCell>
        <mxCell id="2SvRunpLNIh245kXhkNx-64" value="s_new &amp;lt;&amp;lt; word_odd &amp;lt;&amp;lt; &quot; &quot;" style="rounded=0;whiteSpace=wrap;html=1;" vertex="1" parent="1">
          <mxGeometry x="720" y="420" width="120" height="60" as="geometry" />
        </mxCell>
        <mxCell id="2SvRunpLNIh245kXhkNx-66" style="edgeStyle=orthogonalEdgeStyle;rounded=0;orthogonalLoop=1;jettySize=auto;html=1;exitX=1;exitY=0.5;exitDx=0;exitDy=0;entryX=1;entryY=0.5;entryDx=0;entryDy=0;" edge="1" parent="1" source="2SvRunpLNIh245kXhkNx-65" target="2SvRunpLNIh245kXhkNx-62">
          <mxGeometry relative="1" as="geometry">
            <Array as="points">
              <mxPoint x="860" y="540" />
              <mxPoint x="860" y="350" />
            </Array>
          </mxGeometry>
        </mxCell>
        <mxCell id="2SvRunpLNIh245kXhkNx-74" value="yes" style="edgeLabel;html=1;align=center;verticalAlign=middle;resizable=0;points=[];" vertex="1" connectable="0" parent="2SvRunpLNIh245kXhkNx-66">
          <mxGeometry x="-0.824" relative="1" as="geometry">
            <mxPoint as="offset" />
          </mxGeometry>
        </mxCell>
        <mxCell id="2SvRunpLNIh245kXhkNx-73" value="no" style="edgeStyle=orthogonalEdgeStyle;rounded=0;orthogonalLoop=1;jettySize=auto;html=1;exitX=0.5;exitY=1;exitDx=0;exitDy=0;entryX=0.5;entryY=0;entryDx=0;entryDy=0;" edge="1" parent="1" source="2SvRunpLNIh245kXhkNx-65" target="2SvRunpLNIh245kXhkNx-72">
          <mxGeometry relative="1" as="geometry" />
        </mxCell>
        <mxCell id="2SvRunpLNIh245kXhkNx-65" value="any more words?" style="rhombus;whiteSpace=wrap;html=1;" vertex="1" parent="1">
          <mxGeometry x="740" y="500" width="80" height="80" as="geometry" />
        </mxCell>
        <mxCell id="2SvRunpLNIh245kXhkNx-72" value="return s_new.str()" style="ellipse;whiteSpace=wrap;html=1;" vertex="1" parent="1">
          <mxGeometry x="720" y="610" width="120" height="80" as="geometry" />
        </mxCell>
      </root>
    </mxGraphModel>
  </diagram>
</mxfile>
